<?xml version="1.0" standalone="no"?>
<!DOCTYPE svg PUBLIC "-//W3C//DTD SVG 20010904//EN"
 "http://www.w3.org/TR/2001/REC-SVG-20010904/DTD/svg10.dtd">
<svg version="1.0" xmlns="http://www.w3.org/2000/svg"
 width="700.000000pt" height="700.000000pt" viewBox="0 0 700.000000 700.000000"
 preserveAspectRatio="xMidYMid meet">
<metadata>
Created by potrace 1.14, written by Peter Selinger 2001-2017
</metadata>
<g transform="translate(0.000000,700.000000) scale(0.100000,-0.100000)"
fill="#000000" stroke="none">
<path d="M0 3500 l0 -3500 3500 0 3500 0 0 3500 0 3500 -3500 0 -3500 0 0
-3500z m5878 3280 l902 0 0 -3278 0 -3279 -2560 -7 c-1407 -4 -2883 -4 -3280
0 l-720 7 0 3278 0 3279 438 3 c240 2 1310 2 2377 0 1067 -1 2346 -3 2843 -3z"/>
<path d="M430 3500 l0 -3070 3070 0 3070 0 0 3070 0 3070 -3070 0 -3070 0 0
-3070z m4753 2745 c157 -21 296 -58 448 -119 12 -5 23 9 47 62 l31 70 123 -35
c68 -19 126 -38 130 -42 4 -3 -6 -42 -21 -86 -45 -128 -55 -208 -45 -380 4
-82 8 -179 9 -215 l0 -64 -110 -18 c-174 -27 -161 -31 -169 55 -30 308 -139
459 -378 524 -92 26 -366 25 -463 -1 -349 -92 -576 -383 -635 -814 -16 -113
-7 -399 14 -492 72 -313 222 -541 436 -663 125 -70 288 -103 464 -94 192 10
329 62 430 164 98 97 166 275 166 433 l0 60 150 0 150 0 0 -264 0 -264 -72
-55 c-196 -148 -414 -246 -653 -293 -126 -25 -361 -25 -475 0 -98 21 -232 67
-305 104 -212 107 -395 297 -499 517 -164 346 -179 894 -33 1246 162 392 482
618 952 673 75 8 204 5 308 -9z m-4023 -60 c150 -25 352 -29 545 -11 378 36
489 41 623 28 267 -25 460 -97 599 -225 224 -204 228 -590 10 -824 -97 -104
-253 -195 -400 -235 -26 -7 -46 -15 -45 -19 2 -4 163 -212 358 -463 l355 -455
173 -1 172 0 0 -120 0 -120 -262 2 -262 3 -430 558 -430 557 -228 0 -228 0 0
-440 0 -440 225 0 225 0 0 -120 0 -120 -570 0 -570 0 0 120 0 120 195 0 195 0
-2 983 -3 982 -190 20 -190 20 -3 114 -3 113 23 -5 c13 -4 66 -13 118 -22z
m3230 -3045 l0 -120 -194 -2 -194 -3 342 -948 c234 -650 343 -942 349 -930 4
10 157 437 340 948 l333 930 -193 3 -193 2 0 120 0 120 498 -2 497 -3 0 -115
0 -115 -151 -3 -151 -3 -16 -42 c-9 -23 -190 -532 -402 -1131 -212 -598 -388
-1092 -391 -1097 -3 -5 -85 -9 -183 -9 l-177 0 -379 1073 c-208 589 -389 1102
-403 1139 l-24 67 -152 3 -151 3 -3 104 c-1 58 0 111 2 118 4 10 100 13 501
13 l495 0 0 -120z m-1550 -25 l0 -115 -380 0 -380 0 0 -1000 0 -1000 380 0
380 0 0 -115 0 -115 -910 0 -910 0 0 115 0 115 380 0 380 0 0 1000 0 1000
-380 0 -380 0 0 115 0 115 910 0 910 0 0 -115z"/>
<path d="M1870 5959 c-63 -5 -125 -11 -137 -14 l-23 -5 0 -425 0 -425 224 0
c124 0 260 5 303 11 268 36 443 131 511 276 24 53 27 69 27 173 0 137 -15 180
-95 264 -131 138 -356 179 -810 145z"/>
</g>
</svg>
