<?xml version="1.0" encoding="UTF-8"?><svg id="Layer_2" xmlns="http://www.w3.org/2000/svg" xmlns:xlink="http://www.w3.org/1999/xlink" viewBox="0 0 331.85 65.51"><defs><linearGradient id="New_Gradient_Swatch_1" x1="292.3" y1="12.07" x2="331.85" y2="12.07" gradientUnits="userSpaceOnUse"><stop offset="0" stop-color="#8f7028"/><stop offset=".15" stop-color="#e6ca5f"/><stop offset=".33" stop-color="#fdf392"/><stop offset=".5" stop-color="#e4c35c"/><stop offset=".66" stop-color="#b38f3e"/><stop offset=".85" stop-color="#9f4a17"/><stop offset="1" stop-color="#652f0f"/></linearGradient><linearGradient id="New_Gradient_Swatch_1-2" x1="0" y1="38" x2="53.89" y2="38" xlink:href="#New_Gradient_Swatch_1"/><linearGradient id="New_Gradient_Swatch_1-3" x1="41.98" y1="50.39" x2="51.05" y2="50.39" xlink:href="#New_Gradient_Swatch_1"/><linearGradient id="New_Gradient_Swatch_1-4" x1="76.03" y1="36.08" x2="115.56" y2="36.08" xlink:href="#New_Gradient_Swatch_1"/><linearGradient id="New_Gradient_Swatch_1-5" x1="112.25" y1="38.77" x2="143.31" y2="38.77" xlink:href="#New_Gradient_Swatch_1"/><linearGradient id="New_Gradient_Swatch_1-6" x1="143.06" y1="38.09" x2="170.76" y2="38.09" xlink:href="#New_Gradient_Swatch_1"/><linearGradient id="New_Gradient_Swatch_1-7" x1="164.9" y1="29.56" x2="209.33" y2="29.56" xlink:href="#New_Gradient_Swatch_1"/><linearGradient id="New_Gradient_Swatch_1-8" x1="196.75" y1="31.9" x2="217.07" y2="31.9" xlink:href="#New_Gradient_Swatch_1"/><linearGradient id="New_Gradient_Swatch_1-9" x1="215.93" y1="29.49" x2="245.17" y2="29.49" xlink:href="#New_Gradient_Swatch_1"/><linearGradient id="New_Gradient_Swatch_1-10" x1="233.55" y1="29.49" x2="262.79" y2="29.49" xlink:href="#New_Gradient_Swatch_1"/><linearGradient id="New_Gradient_Swatch_1-11" x1="250.5" y1="39.48" x2="277.96" y2="39.48" xlink:href="#New_Gradient_Swatch_1"/><filter id="outer-glow-1" filterUnits="userSpaceOnUse"><feOffset dx="0" dy="0"/><feGaussianBlur result="blur" stdDeviation="5"/><feFlood flood-color="#fff" flood-opacity=".8"/><feComposite in2="blur" operator="in"/><feComposite in="SourceGraphic"/></filter><linearGradient id="New_Gradient_Swatch_1-12" x1="312.07" y1="1" x2="312.07" y2="23.14" xlink:href="#New_Gradient_Swatch_1"/><linearGradient id="New_Gradient_Swatch_1-13" x1="26.95" y1="11.49" x2="26.95" y2="64.51" xlink:href="#New_Gradient_Swatch_1"/><linearGradient id="New_Gradient_Swatch_1-14" x1="46.52" y1="46.12" x2="46.52" y2="54.67" xlink:href="#New_Gradient_Swatch_1"/><linearGradient id="New_Gradient_Swatch_1-15" x1="95.67" y1="11.53" x2="95.67" y2="60.64" xlink:href="#New_Gradient_Swatch_1"/><linearGradient id="New_Gradient_Swatch_1-16" x1="127.6" y1="23.09" x2="127.6" y2="54.77" xlink:href="#New_Gradient_Swatch_1"/><linearGradient id="New_Gradient_Swatch_1-17" x1="157.08" y1="22.43" x2="157.08" y2="53.75" xlink:href="#New_Gradient_Swatch_1"/><linearGradient id="New_Gradient_Swatch_1-18" x1="187.12" y1="4.25" x2="187.12" y2="54.88" xlink:href="#New_Gradient_Swatch_1"/><linearGradient id="New_Gradient_Swatch_1-19" x1="207.15" y1="9.07" x2="207.15" y2="54.74" xlink:href="#New_Gradient_Swatch_1"/><linearGradient id="New_Gradient_Swatch_1-20" x1="230.55" y1="4.25" x2="230.55" y2="54.74" xlink:href="#New_Gradient_Swatch_1"/><linearGradient id="New_Gradient_Swatch_1-21" x1="248.17" y1="4.25" x2="248.17" y2="54.74" xlink:href="#New_Gradient_Swatch_1"/><linearGradient id="New_Gradient_Swatch_1-22" x1="264.23" y1="24.18" x2="264.23" y2="54.77" xlink:href="#New_Gradient_Swatch_1"/></defs><g id="Layer_1-2"><g><g><path d="m294.28,24.14c-1.11,0-1.95-.83-1.98-1.97-.04-1.21.82-2.17,2-2.25l5.34-.33,1.99-14.47s-6.22.2-6.22.2c-1.21,0-2.08-.88-2.1-2.04-.02-1.2.86-2.14,2.04-2.18,5.73-.18,11.46-.37,17.2-.55,5.73-.19,11.47-.38,17.2-.55h0c1.21,0,2.08.88,2.1,2.04.02,1.2-.86,2.14-2.04,2.18l-5.47.18c-1.32,4.13-3.12,9.22-5.67,14.02l6.97-.43h.11c1.11,0,1.95.83,1.98,1.97.04,1.21-.82,2.17-2,2.25l-31.34,1.94h-.11Zm9.64-4.81l8.49-.53c-.72-2.19-3.76-11.45-4.56-13.88l-1.95.06-1.97,14.34Zm11.72-4.19c1.82-3.67,3.19-7.43,4.24-10.6l-7.64.25c.71,2.16,3.4,10.36,3.4,10.36Z" style="fill:url(#New_Gradient_Swatch_1);"/><g><path d="m44.35,65.51c-2.43,0-4.78-.59-6.99-1.76-2.19-1.16-4.33-3.07-6.36-5.67-2-2.56-3.77-5.67-5.25-9.25-.74-1.78-1.82-5.07-3.23-9.76-.63-2.14-1.09-3.64-1.36-4.48,0,0-.23-.02-.23-.02l-4.28,16.89c.57.06,1.06.09,1.45.09.95,0,2.16-.17,3.6-.5l1.52-.35-.79,3.89-.64.13c-1.65.35-2.91.51-3.86.51s-2.3-.08-4.13-.25c-1.54-.16-2.82-.24-3.81-.24-1.79,0-3.91.26-6.28.79l-1.61.35,1.1-4.12.57-.14c3.02-.77,4.19-1.37,4.64-1.74.99-.85,1.79-2.46,2.37-4.78l4.92-19.65c.82-3.37.88-4.06.88-4.19,0-.1-.02-.13-.02-.13h0s-.21-.1-.91-.1l-1.56.04,1-3.72h.76c2.27-.03,5.04-.46,8.24-1.27l1.74-.45-.54,1.72c-.27.86-.64,2.17-1.08,3.88l-2.37,9.33c.61.09,1.16.14,1.62.14,2.68,0,4.92-.91,6.83-2.79,1.91-1.87,2.83-4.03,2.83-6.58,0-1.89-.7-3.4-2.15-4.61-1.48-1.24-3.56-1.88-6.19-1.88-3.5,0-6.97.86-10.33,2.56-3.34,1.69-5.87,3.81-7.52,6.29-1.64,2.46-2.47,5.06-2.47,7.73,0,1.89.77,3.49,2.36,4.87,1.32,1.11,1.7,1.62,1.89,1.93.3.51.46,1.06.46,1.64,0,.75-.29,1.44-.84,1.99-.55.55-1.25.84-2.03.84-1.62,0-3.04-.89-4.22-2.66-1.38-2.08-2.08-4.66-2.08-7.66,0-3.79,1.06-7.36,3.15-10.63,2.08-3.26,5.26-5.98,9.45-8.09,4.17-2.1,8.62-3.17,13.23-3.17,4.33,0,7.97.84,10.8,2.49,3.01,1.76,4.54,4.39,4.54,7.83,0,3.14-1.34,6.09-4,8.76-2.35,2.36-5.52,3.98-9.43,4.82.76,1.55,1.26,2.62,1.52,3.24.5,1.3,1.27,3.47,2.27,6.46,2.31,6.87,4.72,11.75,7.15,14.5,1.69,1.89,3.43,2.81,5.33,2.81s2.86-.72,3.37-2.34c.56-1.92,1.01-2.51,1.33-2.81.63-.59,1.37-.9,2.19-.9s1.57.31,2.14.9c.56.58.86,1.32.86,2.14,0,1.76-.93,3.41-2.75,4.92-1.77,1.46-4.05,2.2-6.79,2.2Z" style="fill:url(#New_Gradient_Swatch_1-2);"/><path d="m46.22,55.67c-1.19,0-2.21-.43-3.02-1.27-.8-.83-1.21-1.9-1.21-3.17,0-1.7.51-3.21,1.52-4.49.81-1.05,1.96-1.61,3.32-1.61,1.21,0,2.23.46,3.05,1.37.79.88,1.19,1.98,1.19,3.29,0,1.76-.45,3.18-1.32,4.23-.92,1.1-2.1,1.66-3.51,1.66Z" style="fill:url(#New_Gradient_Swatch_1-3);"/><path d="m92.22,61.64c-2.94,0-5.7-.78-8.22-2.31-2.52-1.53-4.51-3.75-5.9-6.58-1.37-2.8-2.07-6.15-2.07-9.97,0-5.27,1.39-10.59,4.14-15.79,2.75-5.21,6.24-9.29,10.39-12.14,4.18-2.87,8.35-4.32,12.38-4.32,1.45,0,2.9.16,4.33.48.25.06.94.23,7.35,2.46l.93.32-.31.94c-1.3,3.92-2.04,8.03-2.2,12.2l-.04.96h-3.93l.07-1.06c.12-1.8.17-3.26.17-4.33,0-3-.59-5.08-1.75-6.18-1.19-1.13-2.66-1.68-4.5-1.68-2.55,0-5.27,1.07-8.08,3.19-2.85,2.15-5.35,5.58-7.42,10.19-2.09,4.64-3.15,9.48-3.15,14.37s.94,8.24,2.8,10.66c1.82,2.37,4.03,3.53,6.75,3.53,3.73,0,7.26-2.34,10.46-6.95.56-.78,1.2-1.17,1.91-1.17.56,0,1.06.2,1.46.57.41.39.63.88.63,1.41,0,.65-.31,1.68-2.57,4.37-1.64,1.94-3.72,3.58-6.19,4.87-2.5,1.3-5.01,1.96-7.46,1.96Z" style="fill:url(#New_Gradient_Swatch_1-4);"/><path d="m129.92,55.77c-.87,0-1.56-.23-2.05-.69-.35-.33-.78-.93-.78-1.96,0-.46.11-1.03.33-1.74l.25-.85c-1.4,1.26-2.92,2.41-4.57,3.44-1.86,1.17-3.62,1.77-5.24,1.77s-3-.62-3.93-1.84c-1.11-1.46-1.68-3.36-1.68-5.67,0-2.61.7-5.54,2.07-8.7,1.36-3.13,3.21-6.01,5.5-8.57,2.3-2.57,4.78-4.5,7.35-5.72,2.03-.95,4.63-1.43,7.74-1.43.58,0,1.17.03,1.76.08l.74-1.2,4.38-.93-3.11,10.51c-1.04,3.5-2.04,7.58-2.97,12.15-.62,3.03-.75,4.2-.75,4.65,0,.02,0,.04,0,.06.18-.05.53-.19,1.16-.57,1.38-.82,2.73-1.87,4-3.1l.78-.75,2.41,2.94-.7.64c-2.73,2.49-4.45,3.97-5.24,4.52-1.56,1.07-3.08,1.88-4.52,2.4-.99.37-1.98.55-2.94.55Zm.56-26.19c-1.91,0-3.52.51-4.93,1.54-1.42,1.05-2.79,3.02-4.06,5.86-1.28,2.87-1.93,5.76-1.93,8.61,0,1.7.33,2.48.6,2.84.35.46.76.66,1.32.66,1.35,0,2.87-.79,4.52-2.35,1.71-1.61,2.98-3.99,3.8-7.07l2.64-9.92c-.75-.12-1.4-.18-1.95-.18Z" style="fill:url(#New_Gradient_Swatch_1-5);"/><path d="m144.63,54.75l2.79-10.71c1.18-4.59,2.23-9.03,3.12-13.18.16-.81.24-1.24.27-1.48-.17.08-.43.21-.81.46-.46.3-1.49,1.15-3.78,3.44l-.75.75-2.4-2.71.62-.66c2.31-2.48,4.66-4.38,6.99-5.63,2.41-1.3,4.25-1.93,5.62-1.93.65,0,1.2.18,1.63.52.48.39.74.93.74,1.53,0,.28-.06.82-.49,2.67l-.31,1.26c1.61-2.04,3.34-3.88,5.17-5.51,1.64-1.45,3.03-2.16,4.26-2.16.97,0,1.8.33,2.46.97.66.64,1.01,1.44,1.01,2.32s-.34,1.7-.99,2.33c-.36.36-1.16.93-3.81,1.81-1.62.55-2.95,1.21-3.95,1.96-1.01.76-2.15,1.97-3.39,3.57-1.24,1.61-2.11,3.02-2.59,4.18-.49,1.2-1.27,4.08-2.31,8.58l-1.77,7.59h-7.33Z" style="fill:url(#New_Gradient_Swatch_1-6);"/><path d="m182.67,55.88c-.81,0-1.5-.25-2.04-.73-.71-.64-.86-1.34-.86-1.82,0-.5.13-1.22.42-2.24l.15-.52c-1.7,1.61-3.18,2.77-4.49,3.52-2.02,1.16-3.89,1.75-5.56,1.75-1.56,0-2.88-.68-3.92-2.02-.98-1.27-1.47-3.09-1.47-5.42,0-3.48,1.19-7.5,3.54-11.96,2.35-4.44,5.01-7.79,7.92-9.94,2.96-2.2,5.75-3.31,8.28-3.31.4,0,.92.04,1.57.13,1.05-4.21,2.04-7.26,3.02-9.3,1.05-2.19,2.44-4.12,4.11-5.71,1.68-1.6,3.62-2.86,5.78-3.73,2.16-.88,4.22-1.32,6.12-1.32,1.18,0,2.16.33,2.91.99.78.68,1.19,1.58,1.19,2.62s-.38,1.88-1.11,2.52c-.7.62-1.64.94-2.78.94-.64,0-1.76-.12-3.42-.36-1.93-.28-2.77-.34-3.13-.34-.59,0-1.1.17-1.54.53-.27.21-.81.86-1.46,2.79-.36,1.03-1.21,4.39-2.53,10l-4.97,21.24c-.7,3.01-.85,4.26-.85,4.77,0,.17.02.27.03.33.22,0,.52-.08.99-.33.74-.41,2.25-1.51,4.5-3.25l.81-.63,2.15,2.91-.72.6c-3.22,2.71-5.56,4.47-7.15,5.38-2.29,1.29-4.08,1.92-5.49,1.92Zm-.42-27.21c-1.34,0-2.64.53-3.97,1.62-1.36,1.12-2.72,3.39-4.05,6.76-1.34,3.41-2.02,6.4-2.02,8.89,0,.96.24,1.71.73,2.3.6.71,1.1.79,1.43.79.77,0,1.72-.38,2.81-1.13,1.66-1.19,3.01-2.67,3.99-4.39.39-.73,1.15-2.79,2.46-8.36l1.39-6.08c-1.57-.32-2.37-.4-2.77-.4Z" style="fill:url(#New_Gradient_Swatch_1-7);"/><path d="m203.14,55.74c-1.1,0-2.01-.37-2.68-1.09-.66-.7-.99-1.65-.99-2.83,0-3.06,1.74-10.18,5.32-21.78.09-.28.14-.54.18-.77-.18.06-.4.16-.68.33-.3.19-1.2.89-3.82,3.45l-.62.61-3.09-2.39.73-.8c2.4-2.65,4.64-4.56,6.66-5.7,2.1-1.19,3.88-1.76,5.43-1.76.98,0,1.78.24,2.36.72.63.52.96,1.25.96,2.11,0,.35,0,1.17-2.32,8.93-3.04,10.2-3.67,13.66-3.67,14.76,0,.02,0,.04,0,.06.47-.25,1.76-1.09,4.85-3.99l.7-.65,2.8,2.73-.76.72c-3.3,3.11-5.66,5.05-7.22,5.94-1.65.94-2.99,1.4-4.12,1.4Zm9.46-39.2c-.97,0-1.83-.36-2.48-1.05-.65-.68-.98-1.56-.98-2.62,0-1.31.43-2.44,1.28-3.37.87-.95,1.94-1.43,3.16-1.43,1,0,1.85.34,2.51,1.02.66.67.99,1.53.99,2.54,0,1.28-.45,2.43-1.33,3.4-.91,1-1.97,1.5-3.15,1.5Z" style="fill:url(#New_Gradient_Swatch_1-8);"/><path d="m219.42,55.74c-1.01,0-1.9-.41-2.55-1.18-.62-.73-.94-1.71-.94-2.92,0-1.97.72-5.87,2.21-11.91l3.79-15.43c1.41-5.7,2.57-9.44,3.55-11.42,1.54-3.04,3.74-5.43,6.55-7.1,2.8-1.67,5.8-2.52,8.92-2.52,1.24,0,2.26.32,3.01.96.8.67,1.22,1.54,1.22,2.52,0,1.04-.41,1.95-1.19,2.62-.74.64-1.79.97-3.1.97-.77,0-1.8-.12-3.16-.37-1.05-.18-2.04-.27-2.94-.27-.71,0-1.24.13-1.54.37-.28.23-.87.95-1.51,3.05-.54,1.76-1.44,5.32-2.66,10.57l-3.51,14.73c-2.17,9.24-2.55,11.1-2.58,11.39,0,.01,0,.03,0,.04.25-.06.72-.23,1.53-.74,1.87-1.17,3.78-2.7,5.67-4.54l.73-.71,2.52,2.67-.61.68c-1.87,2.11-4.12,4.07-6.67,5.81-2.69,1.83-4.89,2.72-6.73,2.72Z" style="fill:url(#New_Gradient_Swatch_1-9);"/><path d="m237.04,55.74c-1.01,0-1.9-.41-2.55-1.18-.62-.73-.94-1.71-.94-2.92,0-1.97.72-5.87,2.21-11.91l3.79-15.43c1.41-5.7,2.57-9.44,3.55-11.42,1.54-3.04,3.74-5.43,6.55-7.1,2.8-1.67,5.8-2.52,8.92-2.52,1.24,0,2.26.32,3.01.96.8.67,1.22,1.54,1.22,2.52,0,1.04-.41,1.95-1.19,2.62-.74.64-1.79.97-3.1.97-.77,0-1.8-.12-3.16-.37-1.05-.18-2.04-.27-2.94-.27-.71,0-1.24.13-1.54.37-.28.23-.87.95-1.51,3.05-.54,1.76-1.44,5.32-2.66,10.57l-3.51,14.73c-2.17,9.24-2.55,11.1-2.58,11.39,0,.01,0,.03,0,.04.25-.06.72-.23,1.53-.74,1.87-1.17,3.78-2.7,5.67-4.54l.73-.71,2.52,2.67-.61.68c-1.87,2.11-4.12,4.07-6.67,5.81-2.69,1.83-4.89,2.72-6.73,2.72Z" style="fill:url(#New_Gradient_Swatch_1-10);"/><path d="m259.87,55.77c-2.78,0-5.07-.93-6.79-2.78-1.71-1.82-2.57-4.31-2.57-7.4,0-5.1,1.48-9.88,4.39-14.2,3.72-5.45,8.45-8.21,14.05-8.21,2.6,0,4.78,1.04,6.5,3.1,1.67,2,2.52,4.79,2.52,8.27,0,5.43-1.93,10.37-5.74,14.67-3.84,4.34-7.99,6.54-12.35,6.54Zm6.08-27.95c-1.62,0-3.29,1.28-4.95,3.82-1.75,2.67-2.63,6.45-2.63,11.25,0,2.83.52,5.08,1.56,6.66.66,1.01,1.47,1.48,2.54,1.48,1.6,0,3.13-1.08,4.55-3.21,1.94-2.98,2.93-6.76,2.93-11.22,0-3.31-.43-5.66-1.27-6.99-.76-1.2-1.65-1.78-2.72-1.78Z" style="fill:url(#New_Gradient_Swatch_1-11);"/></g></g><g style="filter:url(#outer-glow-1);"><path d="m329.78,1c-11.47.36-22.93.75-34.4,1.11-1.42.04-1.43,2.26,0,2.21,2.47-.08,4.93-.16,7.4-.24-.75,5.49-1.51,10.97-2.26,16.46-2.05.13-4.11.25-6.16.38-1.42.09-1.43,2.3,0,2.21,10.44-.65,20.88-1.3,31.31-1.94,1.42-.09,1.43-2.3,0-2.21-2.92.18-5.84.36-8.76.54,2.9-5.03,4.95-10.6,6.69-16.11,2.06-.07,4.12-.13,6.18-.2,1.42-.04,1.43-2.26,0-2.21Zm-27.02,19.4c.74-5.36,1.47-10.71,2.21-16.07.02-.11,0-.22,0-.32,1.2-.04,2.39-.08,3.59-.12,1.74,5.27,3.46,10.55,5.2,15.82-3.67.23-7.33.45-11,.68Zm12.66-2.71c-1.52-4.62-3.03-9.25-4.56-13.87,3.47-.11,6.93-.22,10.4-.34-1.56,4.86-3.36,9.73-5.84,14.21Z" style="fill:url(#New_Gradient_Swatch_1-12);"/><g><path d="m20.14,33.64l-4.73,18.67c1.12.16,2.02.25,2.7.25,1.03,0,2.3-.18,3.82-.53l-.35,1.72c-1.57.33-2.79.49-3.65.49-.91,0-2.26-.08-4.04-.25-1.57-.16-2.87-.25-3.9-.25-1.87,0-4.04.27-6.5.81l.53-1.97c2.58-.66,4.25-1.3,5.02-1.93,1.17-1.01,2.07-2.78,2.71-5.31l4.92-19.65c.61-2.51.91-3.98.91-4.43,0-.42-.15-.74-.44-.95s-.87-.3-1.74-.28l.46-1.69c2.36-.02,5.18-.46,8.48-1.3-.28.89-.65,2.2-1.09,3.94l-2.64,10.37c1.13.23,2.08.35,2.85.35,2.93,0,5.44-1.02,7.53-3.08,2.09-2.05,3.13-4.48,3.13-7.29,0-2.18-.84-3.97-2.51-5.38-1.67-1.41-3.95-2.11-6.83-2.11-3.68,0-7.27.89-10.78,2.67-3.51,1.78-6.15,3.99-7.9,6.63-1.76,2.64-2.63,5.4-2.63,8.28,0,2.18.9,4.06,2.71,5.62.91.77,1.48,1.34,1.69,1.69s.32.73.32,1.12c0,.49-.18.92-.55,1.28-.37.36-.81.54-1.32.54-1.27,0-2.4-.74-3.39-2.21-1.27-1.92-1.91-4.29-1.91-7.1,0-3.61,1-6.97,2.99-10.09,1.99-3.12,5.01-5.7,9.05-7.73s8.3-3.06,12.78-3.06c4.17,0,7.61.79,10.3,2.36,2.69,1.57,4.04,3.89,4.04,6.96,0,2.88-1.23,5.57-3.7,8.05-2.47,2.48-5.87,4.08-10.2,4.78,1.08,2.16,1.77,3.61,2.07,4.36.49,1.27,1.24,3.4,2.25,6.4,2.37,7.03,4.81,11.98,7.34,14.85,1.87,2.1,3.9,3.15,6.08,3.15s3.69-1.01,4.32-3.04c.38-1.28.73-2.07,1.05-2.38.45-.42.95-.63,1.51-.63s1.04.2,1.42.6c.39.4.58.88.58,1.44,0,1.45-.8,2.84-2.39,4.15-1.59,1.31-3.64,1.97-6.15,1.97-2.27,0-4.45-.55-6.52-1.65-2.07-1.1-4.09-2.9-6.04-5.4-1.96-2.5-3.66-5.51-5.11-9.02-.73-1.76-1.79-4.98-3.19-9.67-.84-2.86-1.37-4.57-1.58-5.13l-.86-.07c-.21,0-.51.02-.9.07Z" style="fill:url(#New_Gradient_Swatch_1-13);"/><path d="m46.82,46.12c.91,0,1.68.35,2.3,1.04.62.69.93,1.56.93,2.62,0,1.52-.36,2.72-1.09,3.59-.73.87-1.64,1.3-2.74,1.3-.91,0-1.68-.32-2.3-.97-.62-.64-.93-1.47-.93-2.48,0-1.48.43-2.77,1.3-3.87.63-.82,1.48-1.23,2.53-1.23Z" style="fill:url(#New_Gradient_Swatch_1-14);"/><path d="m112.05,26.89h-1.9c.12-1.83.18-3.29.18-4.39,0-3.3-.69-5.61-2.06-6.91s-3.1-1.95-5.19-1.95c-2.79,0-5.68,1.13-8.68,3.39-3,2.26-5.58,5.79-7.73,10.58-2.16,4.79-3.23,9.72-3.23,14.78s1,8.65,3.01,11.27,4.52,3.92,7.54,3.92c4.1,0,7.86-2.46,11.29-7.38.35-.49.71-.74,1.09-.74.3,0,.56.1.77.3.21.2.32.43.32.69,0,.63-.78,1.88-2.34,3.73-1.56,1.85-3.52,3.39-5.89,4.62-2.37,1.23-4.7,1.85-7,1.85-2.77,0-5.33-.72-7.7-2.16-2.37-1.44-4.21-3.5-5.52-6.17-1.31-2.67-1.97-5.85-1.97-9.53,0-5.13,1.34-10.24,4.03-15.33,2.68-5.09,6.04-9.01,10.07-11.78,4.03-2.77,7.97-4.15,11.81-4.15,1.38,0,2.75.15,4.11.46.59.14,3,.95,7.24,2.43-1.34,4.03-2.09,8.19-2.25,12.48Z" style="fill:url(#New_Gradient_Swatch_1-15);"/><path d="m138.04,23.59l2.32-.49-2.64,8.89c-1.05,3.54-2.05,7.62-2.99,12.23-.52,2.51-.77,4.13-.77,4.85s.29,1.09.88,1.09c.37,0,.97-.25,1.79-.74,1.45-.87,2.85-1.95,4.18-3.23l1.12,1.37c-2.67,2.44-4.38,3.91-5.13,4.43-1.5,1.03-2.93,1.79-4.29,2.29-.89.33-1.76.49-2.6.49-.61,0-1.07-.14-1.37-.42-.3-.28-.46-.69-.46-1.23,0-.35.09-.83.28-1.44l1.41-4.78c-2.02,2.41-4.42,4.49-7.21,6.22-1.71,1.08-3.28,1.62-4.71,1.62s-2.4-.48-3.13-1.44c-.98-1.29-1.48-2.98-1.48-5.06,0-2.48.66-5.25,1.99-8.3,1.32-3.05,3.1-5.81,5.33-8.3,2.23-2.48,4.57-4.31,7.03-5.48,1.9-.89,4.34-1.34,7.31-1.34.75,0,1.51.05,2.29.14l.84-1.37Zm-4.36,5.38c-1.27-.26-2.33-.39-3.2-.39-2.11,0-3.95.58-5.52,1.74-1.57,1.16-3.03,3.25-4.38,6.26-1.35,3.01-2.02,6.02-2.02,9.02,0,1.59.27,2.74.81,3.45.54.7,1.24,1.05,2.11,1.05,1.62,0,3.35-.87,5.2-2.62,1.85-1.75,3.21-4.26,4.08-7.54l2.92-10.97Z" style="fill:url(#New_Gradient_Swatch_1-16);"/><path d="m151.16,53.75h-5.24l2.46-9.46c1.2-4.64,2.24-9.05,3.13-13.22.21-1.03.32-1.68.32-1.93,0-.56-.26-.84-.77-.84-.35,0-.89.24-1.62.72-.73.48-2.04,1.67-3.94,3.57l-1.09-1.23c2.25-2.41,4.49-4.22,6.73-5.43,2.24-1.21,3.95-1.81,5.15-1.81.42,0,.76.1,1,.3.25.2.37.45.37.76s-.15,1.12-.46,2.44l-1.53,6.32c2.37-3.74,5.05-6.94,8.03-9.6,1.43-1.27,2.63-1.91,3.59-1.91.7,0,1.29.23,1.76.69.47.46.7.99.7,1.6s-.23,1.17-.69,1.62c-.46.45-1.6.97-3.42,1.58-1.73.59-3.14,1.29-4.23,2.11-1.09.82-2.28,2.07-3.58,3.76-1.3,1.69-2.21,3.16-2.73,4.41-.52,1.25-1.3,4.17-2.36,8.73l-1.59,6.82Z" style="fill:url(#New_Gradient_Swatch_1-17);"/><path d="m193.67,46.47l.98,1.34c-3.14,2.65-5.47,4.41-7,5.27-2.11,1.2-3.77,1.79-4.99,1.79-.56,0-1.02-.16-1.37-.47s-.53-.67-.53-1.07.13-1.05.39-1.97l1.23-4.3c-2.81,3.03-5.16,5.08-7.03,6.16-1.88,1.08-3.56,1.62-5.06,1.62-1.24,0-2.29-.55-3.13-1.64-.84-1.09-1.27-2.69-1.27-4.8,0-3.33,1.14-7.16,3.43-11.49s4.83-7.53,7.63-9.61c2.8-2.08,5.36-3.12,7.68-3.12.52,0,1.29.08,2.32.25,1.1-4.56,2.16-7.89,3.16-9.98,1.01-2.09,2.31-3.9,3.9-5.42,1.59-1.52,3.42-2.7,5.47-3.53,2.05-.83,3.97-1.25,5.75-1.25.94,0,1.69.25,2.25.74s.84,1.11.84,1.86-.26,1.32-.78,1.78c-.52.46-1.22.69-2.11.69-.59,0-1.68-.12-3.28-.35-1.6-.23-2.69-.35-3.28-.35-.82,0-1.54.25-2.17.75-.62.5-1.22,1.58-1.78,3.25-.37,1.05-1.23,4.42-2.56,10.09l-4.97,21.24c-.58,2.51-.88,4.17-.88,4.99,0,.89.34,1.34,1.02,1.34.42,0,.91-.15,1.48-.46.8-.44,2.34-1.56,4.64-3.34Zm-7.45-18.17c-1.88-.42-3.2-.63-3.97-.63-1.57,0-3.11.62-4.61,1.85-1.5,1.23-2.95,3.62-4.34,7.17-1.39,3.54-2.09,6.63-2.09,9.26,0,1.2.32,2.18.97,2.94.64.76,1.38,1.14,2.2,1.14.98,0,2.11-.43,3.38-1.3,1.8-1.29,3.23-2.86,4.29-4.72.63-1.17,1.49-4.05,2.57-8.63l1.62-7.08Z" style="fill:url(#New_Gradient_Swatch_1-18);"/><path d="m199.76,32.34l-1.55-1.2c2.34-2.58,4.48-4.41,6.41-5.5,1.93-1.09,3.58-1.63,4.93-1.63.75,0,1.32.16,1.72.49.4.33.6.77.6,1.34,0,.68-.76,3.56-2.28,8.65-2.48,8.32-3.72,13.34-3.72,15.05,0,.33.08.6.25.83.16.22.34.33.53.33.75,0,2.67-1.45,5.77-4.36l1.37,1.34c-3.21,3.02-5.55,4.96-7.03,5.8s-2.68,1.27-3.62,1.27c-.82,0-1.47-.26-1.95-.77-.48-.52-.72-1.23-.72-2.14,0-2.93,1.76-10.09,5.27-21.48.16-.54.25-1.02.25-1.44,0-.47-.21-.7-.63-.7-.47,0-1,.19-1.6.56-.6.38-1.93,1.57-3.99,3.59Zm13.82-23.27c.73,0,1.32.24,1.79.72.47.48.7,1.1.7,1.85,0,1.03-.36,1.94-1.07,2.72-.72.79-1.52,1.18-2.41,1.18-.7,0-1.29-.25-1.76-.74-.47-.49-.7-1.14-.7-1.93,0-1.05.34-1.95,1.02-2.69.68-.74,1.49-1.11,2.43-1.11Z" style="fill:url(#New_Gradient_Swatch_1-19);"/><path d="m230.88,45.28l1.2,1.27c-1.83,2.06-3.99,3.94-6.49,5.64s-4.55,2.55-6.17,2.55c-.73,0-1.32-.28-1.79-.83-.47-.55-.7-1.31-.7-2.27,0-1.88.73-5.77,2.18-11.67l3.79-15.43c1.38-5.58,2.54-9.32,3.48-11.21,1.45-2.87,3.51-5.1,6.16-6.69,2.66-1.59,5.46-2.38,8.41-2.38,1.01,0,1.8.24,2.37.73.57.48.86,1.07.86,1.75,0,.76-.28,1.38-.84,1.86-.56.48-1.38.73-2.45.73-.7,0-1.69-.12-2.98-.35-1.12-.19-2.16-.28-3.12-.28s-1.68.2-2.17.59c-.68.56-1.29,1.74-1.84,3.53-.55,1.8-1.44,5.34-2.68,10.64l-3.51,14.73c-1.73,7.38-2.6,11.24-2.6,11.57,0,.75.27,1.12.81,1.12s1.27-.3,2.25-.91c1.95-1.22,3.89-2.78,5.84-4.68Z" style="fill:url(#New_Gradient_Swatch_1-20);"/><path d="m248.51,45.28l1.2,1.27c-1.83,2.06-3.99,3.94-6.49,5.64s-4.55,2.55-6.17,2.55c-.73,0-1.32-.28-1.79-.83-.47-.55-.7-1.31-.7-2.27,0-1.88.73-5.77,2.18-11.67l3.79-15.43c1.38-5.58,2.54-9.32,3.48-11.21,1.45-2.87,3.51-5.1,6.16-6.69,2.66-1.59,5.46-2.38,8.41-2.38,1.01,0,1.8.24,2.37.73.57.48.86,1.07.86,1.75,0,.76-.28,1.38-.84,1.86-.56.48-1.38.73-2.45.73-.7,0-1.69-.12-2.98-.35-1.12-.19-2.16-.28-3.12-.28s-1.68.2-2.17.59c-.68.56-1.29,1.74-1.84,3.53-.55,1.8-1.44,5.34-2.68,10.64l-3.51,14.73c-1.73,7.38-2.6,11.24-2.6,11.57,0,.75.27,1.12.81,1.12s1.27-.3,2.25-.91c1.95-1.22,3.89-2.78,5.84-4.68Z" style="fill:url(#New_Gradient_Swatch_1-21);"/><path d="m268.94,24.18c2.3,0,4.21.91,5.73,2.74,1.52,1.83,2.29,4.37,2.29,7.63,0,5.2-1.83,9.87-5.48,14.01-3.66,4.14-7.52,6.21-11.6,6.21-2.51,0-4.53-.82-6.06-2.46-1.54-1.64-2.3-3.88-2.3-6.71,0-4.92,1.41-9.47,4.22-13.64,3.54-5.18,7.95-7.77,13.22-7.77Zm-2.99,2.64c-1.99,0-3.92,1.42-5.78,4.27s-2.79,6.78-2.79,11.79c0,3.05.57,5.45,1.72,7.21.84,1.29,1.97,1.93,3.38,1.93,1.97,0,3.76-1.22,5.38-3.66,2.06-3.16,3.09-7.09,3.09-11.78,0-3.52-.47-6.02-1.42-7.52-.95-1.5-2.14-2.25-3.57-2.25Z" style="fill:url(#New_Gradient_Swatch_1-22);"/></g></g></g></g></svg>